<?xml version="1.0" encoding="UTF-8"?>
<!DOCTYPE svg PUBLIC "-//W3C//DTD SVG 1.1//EN" "http://www.w3.org/Graphics/SVG/1.1/DTD/svg11.dtd">
<!-- Creator: CorelDRAW 2020 (64-Bit) -->
<svg xmlns="http://www.w3.org/2000/svg" xml:space="preserve" width="340px" height="340px" version="1.1" style="shape-rendering:geometricPrecision; text-rendering:geometricPrecision; image-rendering:optimizeQuality; fill-rule:evenodd; clip-rule:evenodd"
viewBox="0 0 667.78 667.78"
 xmlns:xlink="http://www.w3.org/1999/xlink"
 xmlns:xodm="http://www.corel.com/coreldraw/odm/2003">
 <defs>
  <style type="text/css">
   <![CDATA[
    .fil1 {fill:white}
    .fil0 {fill:#3456F3;fill-rule:nonzero}
   ]]>
  </style>
 </defs>
 <g id="Слой_x0020_1">
  <metadata id="CorelCorpID_0Corel-Layer"/>
  <g id="find.svg">
   <path class="fil0" d="M333.89 0l0 0c184.37,0 333.89,149.52 333.89,333.89l0 0c0,184.36 -149.52,333.88 -333.89,333.88l0 0.01c-184.37,-0.01 -333.89,-149.53 -333.89,-333.89l0 0c0,-184.37 149.52,-333.89 333.89,-333.89z"/>
   <path class="fil1" d="M369.1 358.71c-28.12,28.13 -73.72,28.13 -101.84,0 -28.13,-28.12 -28.13,-73.72 0,-101.85 28.12,-28.11 73.72,-28.11 101.84,0 28.12,28.13 28.12,73.73 0,101.85zm8.65 27.16c-38.49,29.45 -93.8,26.57 -129.01,-8.64 -38.35,-38.35 -38.35,-100.53 0,-138.88 38.35,-38.35 100.53,-38.35 138.88,0 35.21,35.21 38.09,90.51 8.65,129.01l70.05 70.04 -18.51 18.53 -70.06 -70.06z"/>
  </g>
 </g>
</svg>
